<svg width="1310" height="225" viewBox="0 0 1310 225" fill="none" xmlns="http://www.w3.org/2000/svg">
<g clip-path="url(#clip0_1_548)">
<path d="M260.386 224.598H259.588V133.044C259.58 82.7873 218.733 41.9042 168.535 41.9042H168.52C118.33 41.913 77.4897 82.7977 77.4817 133.044V224.599H76.6829V133.044C76.6909 82.3571 117.889 41.1133 168.52 41.1045H168.535C219.177 41.1045 260.378 82.3435 260.386 133.044V224.598Z" fill="#1C1C1C"/>
<path d="M252.787 224.599H251.988V133.04C251.988 86.9729 214.551 49.494 168.535 49.494C122.519 49.494 85.0813 86.9729 85.0813 133.04V224.599H84.2825V133.04C84.2825 86.5315 122.078 48.6943 168.535 48.6943C214.992 48.6943 252.787 86.5315 252.787 133.04V224.599Z" fill="#1C1C1C"/>
<path d="M245.187 224.599H244.388V133.044C244.384 91.1777 210.353 57.1141 168.535 57.1141H168.527C126.71 57.1189 92.6857 91.1809 92.6809 133.044V224.599H91.8821V133.044C91.8869 90.7403 126.27 56.3193 168.527 56.3145H168.535C210.797 56.3145 245.183 90.7339 245.187 133.044V224.599Z" fill="#1C1C1C"/>
<path d="M237.588 224.598H236.789V133.044C236.789 95.3669 206.171 64.7147 168.536 64.7147C130.901 64.7147 100.283 95.3669 100.283 133.044V224.599H99.4841V133.044C99.4841 94.9262 130.461 63.915 168.536 63.915C206.612 63.915 237.588 94.9262 237.588 133.044V224.598Z" fill="#1C1C1C"/>
<path d="M229.986 224.598H229.187V133.044C229.186 116.825 222.876 101.577 211.42 90.1099C199.964 78.6435 184.734 72.3285 168.535 72.3285H168.531C135.091 72.3309 107.885 99.5676 107.882 133.044V224.599H107.084V133.044C107.086 99.127 134.651 71.5312 168.531 71.5288H168.535C184.947 71.5288 200.377 77.9262 211.984 89.5446C223.591 101.163 229.985 116.612 229.986 133.044V224.598Z" fill="#1C1C1C"/>
<path d="M222.386 224.598H221.587V133.044C221.587 103.758 197.788 79.9325 168.535 79.9325C139.281 79.9325 115.482 103.758 115.482 133.044V224.599H114.683V133.044C114.683 103.317 138.841 79.1328 168.535 79.1328C198.229 79.1328 222.386 103.317 222.386 133.044V224.598Z" fill="#1C1C1C"/>
<path d="M214.786 224.6H213.988V133.044C213.988 107.953 193.598 87.5399 168.535 87.5399C143.471 87.5399 123.082 107.952 123.082 133.044V224.6H122.283V133.044C122.283 107.512 143.031 86.7402 168.535 86.7402C194.038 86.7402 214.786 107.512 214.786 133.044V224.6Z" fill="#1C1C1C"/>
<path d="M207.187 224.599H206.388V133.044C206.388 112.149 189.408 95.1488 168.535 95.1488C147.662 95.1488 130.681 112.149 130.681 133.044V224.599H129.883V133.044C129.883 111.708 147.222 94.3491 168.535 94.3491C189.847 94.3491 207.187 111.708 207.187 133.044V224.599Z" fill="#1C1C1C"/>
<path d="M199.587 224.599H198.789V133.044C198.789 116.343 185.216 102.756 168.535 102.756C151.853 102.756 138.281 116.343 138.281 133.044V224.599H137.482V133.044C137.482 115.902 151.412 101.957 168.535 101.957C185.657 101.957 199.587 115.902 199.587 133.044V224.599Z" fill="#1C1C1C"/>
<path d="M191.988 224.598H191.189V133.044C191.188 126.986 188.831 121.291 184.552 117.008C180.274 112.726 174.585 110.367 168.535 110.367H168.532C156.043 110.369 145.882 120.541 145.88 133.044V224.599H145.082V133.044C145.083 120.101 155.603 109.569 168.532 109.567H168.535C181.465 109.567 191.986 120.098 191.988 133.044V224.598Z" fill="#1C1C1C"/>
<path d="M183.988 224.598V133.044C183.926 124.5 176.959 117.623 168.424 117.685C159.977 117.746 153.144 124.587 153.082 133.044V224.599" fill="#1C1C1C"/>
<path d="M1151.14 224.927H1084.57V33.4366C1084.54 15.033 1099.47 0.0335861 1117.85 0C1151.14 0 1151.14 15.4952 1151.14 33.4366V224.927ZM1085.37 224.128H1150.34V33.4366C1150.34 15.2025 1150.34 0.79967 1117.86 0.79967C1099.91 0.832457 1085.34 15.4728 1085.37 33.4358V224.128Z" fill="#1E1E1E"/>
<path d="M1126.72 0.400391H1126.45C1108.37 0.400391 1093.7 15.0783 1093.7 33.1869V224.58H1159.47V33.1869C1159.47 15.0783 1144.81 0.400391 1126.72 0.400391Z" fill="#1E1E1E"/>
<path d="M1183.12 124.763C1178.29 113.946 1179.31 133.959 1176 129.372V136.936L1177.78 144.635H1181.34L1183.12 136.936V124.763H1183.12Z" fill="#E2905A"/>
<path d="M1183.52 107.877H1175.6V92.53C1175.6 91.6415 1176.33 90.9194 1177.21 90.9194H1181.92C1182.8 90.9194 1183.52 91.6415 1183.52 92.53V107.877H1183.52ZM1176.4 107.078H1182.72V92.53C1182.72 92.083 1182.36 91.7191 1181.91 91.7191H1177.21C1176.76 91.7191 1176.4 92.083 1176.4 92.53V107.078H1176.4Z" fill="#1E1E1E"/>
<path d="M1171.78 107.078V117.769H1175.6V136.936L1177.47 145.032H1181.66L1183.51 137.026L1183.52 117.769H1187.35V107.078H1171.78ZM1182.72 136.89L1181.03 144.232H1178.1L1176.4 136.89V117.769H1182.72V136.89ZM1186.55 116.97H1172.58V107.877H1186.55V116.97Z" fill="#1E1E1E"/>
<path d="M1189.62 77.8885L1181.39 85.6597C1178.38 79.0144 1182.08 74.2356 1188.18 70.1181C1194.27 66.0014 1189.62 77.8885 1189.62 77.8885Z" fill="#BCD6CA"/>
<path d="M1189.62 77.8895L1181.39 85.6607C1178.38 79.0155 1182.08 74.2366 1188.18 70.1191" fill="#BCD6CA"/>
<path d="M1181.26 86.3356L1181.02 85.8263C1177.49 78.0343 1183.29 72.9412 1187.96 69.7881L1188.4 70.451C1181.49 75.1195 1179.35 79.6208 1181.53 84.9786L1189.35 77.5993L1189.9 78.1814L1181.26 86.3356Z" fill="#1E1E1E"/>
<path d="M1194.43 51.9448C1194.43 51.9448 1208.69 69.5208 1208.69 69.7983C1208.69 70.0757 1207.39 104.904 1207.39 104.904C1207.39 104.904 1201.51 105.396 1200.72 96.6312C1199.94 87.8668 1199 80.8425 1199 80.8425" fill="#BCD6CA"/>
<path d="M1207.27 105.306C1206.29 105.306 1201.06 104.917 1200.33 96.6665C1199.85 91.3984 1199.28 86.1401 1198.6 80.8946L1199.39 80.7882C1199.4 80.8586 1200.34 87.9213 1201.12 96.5945C1201.76 103.702 1205.77 104.446 1207 104.505C1207.14 100.819 1208.23 71.8935 1208.29 69.8975C1207.57 68.8299 1199.5 58.8309 1194.12 52.196L1194.74 51.6914C1209.09 69.3777 1209.09 69.6104 1209.09 69.7967C1209.09 70.0742 1207.92 101.352 1207.79 104.917L1207.77 105.272L1207.42 105.301C1207.37 105.306 1207.32 105.307 1207.27 105.306Z" fill="#1E1E1E"/>
<path d="M1192.08 66.4583C1192.08 66.4583 1190.34 82.9315 1182.3 92.3604C1176.78 98.8458 1184.39 102.761 1184.39 102.761C1184.39 102.761 1197.59 84.2086 1202.04 75.4922C1206.48 66.7758 1195.49 51.0223 1187.71 45.475C1158.53 42.9304 1141.79 35.3471 1132.63 34.5795C1129.74 34.3867 1126.87 35.1371 1124.44 36.7182C1122.01 38.2993 1120.16 40.626 1119.16 43.3494C1118.65 44.7191 1118.27 46.1349 1118.03 47.5773C1117.59 50.2702 1118.09 53.0313 1119.43 55.4028C1120.78 57.7744 1122.9 59.614 1125.43 60.6167L1140.11 65.1748C1140.11 65.1748 1159.27 79.6737 1160.25 80.5829C1171.23 90.6675 1175.64 97.8382 1175.64 97.8382C1175.64 97.8382 1181.26 92.5979 1176.82 86.243C1172.37 79.888 1162.09 69.19 1173.59 63.0829C1185.08 56.9758 1190.54 74.6062 1190.54 74.6062" fill="#BCD6CA"/>
<path d="M1184.52 103.274L1184.21 103.117C1184.07 103.042 1180.64 101.245 1179.99 97.9997C1179.62 96.0893 1180.29 94.1053 1182 92.1014C1186.25 87.113 1188.73 80.0599 1190.12 74.6062C1189.75 73.5026 1186.79 65.0909 1181.21 62.7846C1178.89 61.8274 1176.39 62.0481 1173.77 63.4364C1170.98 64.9206 1169.38 66.7182 1168.89 68.9293C1167.85 73.5658 1171.97 79.0555 1175.27 83.4665C1175.95 84.3709 1176.59 85.2258 1177.14 86.0143C1181.74 92.578 1175.97 98.0765 1175.91 98.1309L1175.56 98.4635L1175.3 98.0485C1175.26 97.9773 1170.78 90.8011 1159.98 80.878C1159.05 80.0159 1141.07 66.404 1139.93 65.5363L1125.31 60.9982C1119.93 58.8695 1116.71 53.2022 1117.63 47.5133C1117.88 46.045 1118.26 44.6038 1118.79 43.2095C1120.88 37.4903 1126.58 33.7854 1132.66 34.1812C1136.01 34.4619 1140.35 35.6406 1145.85 37.132C1155.67 39.7997 1169.13 43.4534 1187.75 45.0767L1187.86 45.0863L1187.95 45.1495C1195.5 50.5417 1207 66.6247 1202.39 75.6737C1197.99 84.3166 1184.85 102.807 1184.72 102.993L1184.52 103.274ZM1191.68 66.4159L1192.48 66.4999C1192.46 66.6662 1190.63 83.205 1182.61 92.6195C1181.07 94.4284 1180.45 96.1861 1180.78 97.8438C1181.24 100.19 1183.47 101.737 1184.28 102.233C1185.99 99.8198 1197.61 83.301 1201.68 75.3099C1206.08 66.6694 1194.93 51.1774 1187.57 45.8628C1168.94 44.2291 1155.47 40.5738 1145.64 37.9029C1140.18 36.4211 1135.87 35.2512 1132.6 34.9769C1126.88 34.5979 1121.51 38.0948 1119.54 43.4854C1119.03 44.832 1118.66 46.2243 1118.42 47.6429C1117.56 52.9615 1120.57 58.2625 1125.58 60.2441L1140.35 64.855C1141.14 65.4475 1159.53 79.3762 1160.52 80.2878C1169.91 88.9155 1174.57 95.5023 1175.7 97.2001C1176.82 95.9662 1180.1 91.6295 1176.49 86.4717C1175.94 85.6896 1175.31 84.8427 1174.63 83.9455C1171.23 79.4026 1166.99 73.7497 1168.11 68.7534C1168.64 66.3344 1170.43 64.3072 1173.4 62.7279C1176.23 61.2213 1178.96 60.991 1181.51 62.0449C1186.49 64.1017 1189.4 70.4319 1190.46 73.1908C1191.37 69.2804 1191.68 66.4831 1191.68 66.4159Z" fill="#1E1E1E"/>
<path d="M1176.44 157.846C1176.92 159.814 1178.08 161.514 1180.11 161.514C1181.08 161.514 1182.01 161.127 1182.7 160.44C1183.38 159.752 1183.77 158.819 1183.77 157.846C1183.77 155.822 1181.48 155.332 1179.7 149.336C1178.97 146.876 1175.57 154.217 1176.44 157.846Z" fill="#E2905A"/>
<path d="M1181.11 207.873C1177.37 207.873 1174.32 204.824 1174.32 201.076C1174.32 197.327 1177.37 194.278 1181.11 194.278C1184.86 194.278 1187.9 197.327 1187.9 201.076C1187.9 204.824 1184.86 207.873 1181.11 207.873ZM1181.11 195.078C1177.81 195.078 1175.12 197.768 1175.12 201.076C1175.12 204.383 1177.81 207.073 1181.11 207.073C1184.41 207.073 1187.1 204.383 1187.1 201.076C1187.1 197.768 1184.41 195.078 1181.11 195.078Z" fill="#1C1C1C"/>
<path d="M1188.4 176.123V166.471H1173.72V176.123H1169.52V225H1192.6V176.123H1188.4ZM1174.52 167.271H1187.6V176.122H1174.52V167.271ZM1191.8 224.2H1170.32V176.923H1191.8V224.2Z" fill="#1E1E1E"/>
<path d="M1191.93 199.167C1189 196.407 1185.15 194.84 1181.13 194.772C1177.1 194.704 1173.2 196.139 1170.18 198.798L1169.66 198.197C1172.82 195.406 1176.92 193.9 1181.14 193.971C1185.36 194.042 1189.4 195.686 1192.48 198.582L1191.93 199.167Z" fill="#1C1C1C"/>
<path d="M1189.6 196.874L1190.92 193.416C1190.93 193.396 1190.93 193.374 1190.92 193.354C1190.91 193.334 1190.9 193.318 1190.88 193.307C1190.86 193.296 1190.84 193.292 1190.82 193.294C1190.8 193.297 1190.78 193.307 1190.76 193.322L1188.41 196.201L1189.6 196.874ZM1187.03 195.574L1188.24 190.793C1188.25 190.781 1188.25 190.769 1188.25 190.756C1188.24 190.744 1188.24 190.732 1188.23 190.721C1188.23 190.711 1188.22 190.701 1188.21 190.694C1188.2 190.686 1188.19 190.681 1188.18 190.678C1188.16 190.672 1188.13 190.674 1188.12 190.681C1188.1 190.689 1188.08 190.703 1188.07 190.72L1185.5 195.047L1187.03 195.574ZM1184.33 194.753L1184.93 189.418C1184.94 189.396 1184.93 189.372 1184.92 189.354C1184.9 189.335 1184.88 189.321 1184.86 189.316C1184.84 189.311 1184.81 189.314 1184.79 189.325C1184.77 189.336 1184.76 189.354 1184.75 189.375L1182.91 194.511L1184.33 194.753ZM1181.78 194.411C1181.78 194.411 1181.28 190.428 1181.05 188.582C1181.05 188.57 1181.04 188.558 1181.04 188.547C1181.03 188.536 1181.02 188.527 1181.01 188.519C1181 188.511 1180.99 188.505 1180.98 188.502C1180.97 188.498 1180.96 188.497 1180.95 188.498C1180.92 188.5 1180.9 188.509 1180.89 188.524C1180.87 188.54 1180.86 188.56 1180.86 188.582L1180.41 194.384L1181.78 194.411ZM1172.63 196.874L1171.31 193.416C1171.3 193.393 1171.3 193.367 1171.31 193.344C1171.32 193.321 1171.34 193.304 1171.37 193.294C1171.38 193.288 1171.4 193.287 1171.42 193.292C1171.44 193.297 1171.46 193.307 1171.47 193.322L1173.83 196.201L1172.63 196.874ZM1175.2 195.574L1173.99 190.793C1173.98 190.781 1173.98 190.768 1173.98 190.755C1173.99 190.743 1173.99 190.731 1174 190.72C1174.01 190.71 1174.01 190.7 1174.02 190.693C1174.03 190.686 1174.05 190.681 1174.06 190.678C1174.1 190.67 1174.14 190.686 1174.16 190.72L1176.73 195.047L1175.2 195.574ZM1177.9 194.753L1177.3 189.418C1177.29 189.393 1177.3 189.368 1177.32 189.349C1177.33 189.329 1177.36 189.317 1177.38 189.314C1177.4 189.312 1177.42 189.317 1177.44 189.328C1177.46 189.339 1177.47 189.356 1177.48 189.375L1179.32 194.511L1177.9 194.753ZM1181.21 208.394C1177.42 208.394 1173.53 206.47 1169.64 202.671L1170.2 202.098C1174.01 205.817 1177.79 207.67 1181.42 207.592C1184.95 207.52 1188.48 205.641 1191.91 202.004L1192.49 202.555C1188.91 206.351 1185.19 208.315 1181.44 208.392L1181.21 208.394Z" fill="#1C1C1C"/>
</g>
<defs>
<clipPath id="clip0_1_548">
<rect width="1310" height="225" fill="white"/>
</clipPath>
</defs>
</svg>
