<svg width="786" height="148" viewBox="0 0 786 148" fill="none" xmlns="http://www.w3.org/2000/svg">
<path d="M250.681 90.9323H250.718C263.641 90.9177 276.114 100.829 285.753 118.772C295.578 137.07 308.295 147.174 321.471 147.152C334.646 147.17 347.362 137.066 357.188 118.772C377.177 81.6467 407.342 81.6467 427.331 118.772C447.685 156.597 478.413 156.597 498.765 118.772C508.4 100.827 520.871 90.9154 533.792 90.9323H533.836M0 29.525H109.054C122.307 29.525 136.098 23.7494 150.045 10.8003C157.113 4.22098 164.767 0.828389 172.507 0.845278C186.079 0.829157 199.18 11.2248 209.312 30.0493C219.613 49.207 232.937 59.79 246.741 59.7784C260.543 59.7861 273.865 49.2039 284.162 30.0493C294.301 11.2202 307.363 0.859863 320.945 0.859863C334.51 0.84451 347.602 11.2348 357.728 30.0493C368.028 49.2024 381.348 59.7846 395.15 59.7784C408.955 59.7884 422.278 49.2062 432.578 30.0493C442.717 11.2202 455.783 0.859863 469.361 0.859863C482.926 0.843742 496.019 11.234 506.144 30.0493C516.443 49.2039 529.764 59.7861 543.566 59.7784C557.371 59.7907 570.695 49.2078 580.995 30.0493C591.124 11.2279 604.222 0.832227 617.792 0.845278C625.532 0.828389 633.187 4.22044 640.254 10.8003C654.215 23.7491 668.013 29.525 681.253 29.525H788.868H0Z" stroke="black" stroke-width="1.0018"/>
</svg>
