<svg width="26" height="26" viewBox="0 0 26 26" fill="none" xmlns="http://www.w3.org/2000/svg">
<path d="M13.4475 2.01395C15.0333 2.01395 16.5479 2.32395 17.9913 2.94395C19.4346 3.56395 20.6796 4.39728 21.7263 5.44395C22.7729 6.49061 23.6063 7.73561 24.2263 9.17895C24.8463 10.6223 25.1563 12.1369 25.1563 13.7227C25.1563 15.8369 24.6329 17.7935 23.5863 19.5927C22.5396 21.3919 21.1167 22.8148 19.3175 23.8614C17.5183 24.9081 15.5617 25.4314 13.4475 25.4314C12.2892 25.4314 11.1813 25.2789 10.1238 24.9739C10.7129 24.0181 11.1092 23.1744 11.3125 22.4427L12.1363 19.2414C12.3396 19.6273 12.7158 19.9677 13.265 20.2627C13.8142 20.5577 14.3933 20.7052 15.0025 20.7052C16.2225 20.7052 17.315 20.3544 18.28 19.6527C19.245 18.951 19.9921 17.9906 20.5213 16.7714C21.0504 15.5523 21.3146 14.1802 21.3138 12.6552C21.3138 10.846 20.6175 9.27561 19.225 7.94394C17.8325 6.61228 16.0588 5.94645 13.9038 5.94645C12.5821 5.94645 11.3725 6.1702 10.275 6.6177C9.1775 7.0652 8.29334 7.64978 7.6225 8.37145C6.95167 9.09311 6.43834 9.87561 6.0825 10.7189C5.72667 11.5623 5.54875 12.411 5.54875 13.2652C5.54875 14.3219 5.74709 15.2469 6.14375 16.0402C6.54042 16.8335 7.135 17.3927 7.9275 17.7177C8.07 17.7785 8.19209 17.7835 8.29375 17.7327C8.39542 17.6819 8.46667 17.5852 8.5075 17.4427C8.65 16.9344 8.73125 16.6194 8.75125 16.4977C8.83292 16.2744 8.78209 16.061 8.59875 15.8577C8.07042 15.2685 7.80625 14.506 7.80625 13.5702C7.80625 12.0252 8.34 10.6989 9.4075 9.59145C10.475 8.48395 11.8725 7.9302 13.6 7.9302C15.125 7.9302 16.3142 8.34686 17.1675 9.1802C18.0208 10.0135 18.4479 11.101 18.4488 12.4427C18.4488 13.561 18.2963 14.5927 17.9913 15.5377C17.6863 16.4827 17.2492 17.2398 16.68 17.8089C16.1108 18.3781 15.4604 18.6627 14.7288 18.6627C14.1188 18.6627 13.6208 18.4389 13.235 17.9914C12.8492 17.5439 12.7271 17.0152 12.8688 16.4052C12.9504 16.1202 13.0571 15.7544 13.1888 15.3077C13.3204 14.861 13.4321 14.4798 13.5238 14.1639C13.6154 13.8481 13.7017 13.5077 13.7825 13.1427C13.8633 12.7777 13.9042 12.4727 13.905 12.2277C13.905 11.7194 13.7729 11.3027 13.5088 10.9777C13.2446 10.6527 12.8583 10.4902 12.35 10.4902C11.72 10.4902 11.1913 10.7798 10.7638 11.3589C10.3363 11.9381 10.1229 12.6648 10.1238 13.5389C10.1238 13.8639 10.1492 14.1789 10.2 14.4839C10.2508 14.7889 10.3067 15.0127 10.3675 15.1552L10.4588 15.3689C9.62542 18.9873 9.11709 21.1114 8.93375 21.7414C8.77125 22.5139 8.71042 23.4185 8.75125 24.4552C6.65709 23.5202 4.96459 22.0869 3.67375 20.1552C2.38292 18.2235 1.7375 16.0789 1.7375 13.7214C1.7375 10.4889 2.88084 7.72936 5.1675 5.4427C7.45417 3.15603 10.2138 2.0127 13.4463 2.0127L13.4475 2.01395Z" fill="#444444"/>
</svg>
