<svg width="26" height="26" viewBox="0 0 26 26" fill="none" xmlns="http://www.w3.org/2000/svg">
<g clip-path="url(#clip0_1_623)">
<path d="M13.5 3.41699C16.7861 3.41699 17.1719 3.43164 18.4707 3.49023C19.6719 3.54394 20.3213 3.74414 20.7559 3.91504C21.332 4.13965 21.7422 4.40332 22.1719 4.83301C22.6016 5.26269 22.8701 5.67285 23.0898 6.24902C23.2559 6.68359 23.4609 7.33301 23.5146 8.53418C23.5732 9.83301 23.5879 10.2187 23.5879 13.5049C23.5879 16.791 23.5732 17.1768 23.5146 18.4756C23.4609 19.6768 23.2607 20.3262 23.0898 20.7607C22.8652 21.3369 22.6016 21.7471 22.1719 22.1768C21.7422 22.6064 21.332 22.875 20.7559 23.0947C20.3213 23.2607 19.6719 23.4658 18.4707 23.5195C17.1719 23.5781 16.7861 23.5928 13.5 23.5928C10.2139 23.5928 9.82812 23.5781 8.52929 23.5195C7.32812 23.4658 6.67871 23.2656 6.24414 23.0947C5.66797 22.8701 5.25781 22.6064 4.82812 22.1768C4.39844 21.7471 4.12988 21.3369 3.91016 20.7607C3.74414 20.3262 3.53906 19.6768 3.48535 18.4756C3.42676 17.1768 3.41211 16.791 3.41211 13.5049C3.41211 10.2187 3.42676 9.83301 3.48535 8.53418C3.53906 7.33301 3.73926 6.68359 3.91016 6.24902C4.13476 5.67285 4.39844 5.26269 4.82812 4.83301C5.25781 4.40332 5.66797 4.13477 6.24414 3.91504C6.67871 3.74902 7.32812 3.54394 8.52929 3.49023C9.82812 3.42676 10.2139 3.41699 13.5 3.41699ZM13.5 1.2002C10.1602 1.2002 9.74023 1.21484 8.42676 1.27344C7.11816 1.33203 6.22461 1.54199 5.44336 1.84473C4.63281 2.15723 3.94922 2.58203 3.26562 3.26562C2.58203 3.94922 2.16211 4.63769 1.84473 5.44336C1.54199 6.22461 1.33203 7.11816 1.27344 8.43164C1.21484 9.74023 1.2002 10.1602 1.2002 13.5C1.2002 16.8398 1.21484 17.2598 1.27344 18.5732C1.33203 19.8818 1.54199 20.7754 1.84473 21.5615C2.15723 22.3721 2.58203 23.0557 3.26562 23.7393C3.94922 24.4228 4.63769 24.8428 5.44336 25.1602C6.22461 25.4629 7.11816 25.6728 8.43164 25.7314C9.74511 25.79 10.1602 25.8047 13.5049 25.8047C16.8496 25.8047 17.2646 25.79 18.5781 25.7314C19.8867 25.6728 20.7803 25.4629 21.5664 25.1602C22.3769 24.8477 23.0605 24.4228 23.7441 23.7393C24.4277 23.0557 24.8477 22.3672 25.165 21.5615C25.4678 20.7803 25.6777 19.8867 25.7363 18.5732C25.7949 17.2598 25.8096 16.8447 25.8096 13.5C25.8096 10.1553 25.7949 9.74023 25.7363 8.42676C25.6777 7.11816 25.4678 6.22461 25.165 5.43848C24.8525 4.62793 24.4277 3.94434 23.7441 3.26074C23.0605 2.57715 22.3721 2.15723 21.5664 1.83984C20.7852 1.53711 19.8916 1.32715 18.5781 1.26855C17.2598 1.21484 16.8398 1.2002 13.5 1.2002Z" fill="black"/>
<path d="M13.5 7.18164C10.0137 7.18164 7.18164 10.0088 7.18164 13.5C7.18164 16.9912 10.0137 19.8184 13.5 19.8184C16.9863 19.8184 19.8184 16.9863 19.8184 13.5C19.8184 10.0137 16.9863 7.18164 13.5 7.18164ZM13.5 17.6016C11.2344 17.6016 9.39844 15.7656 9.39844 13.5C9.39844 11.2344 11.2344 9.39844 13.5 9.39844C15.7656 9.39844 17.6016 11.2344 17.6016 13.5C17.6016 15.7656 15.7656 17.6016 13.5 17.6016Z" fill="black"/>
<path d="M20.0674 8.40723C20.8818 8.40723 21.542 7.74702 21.542 6.93262C21.542 6.11821 20.8818 5.45801 20.0674 5.45801C19.253 5.45801 18.5928 6.11821 18.5928 6.93262C18.5928 7.74702 19.253 8.40723 20.0674 8.40723Z" fill="black"/>
</g>
<defs>
<clipPath id="clip0_1_623">
<rect width="25" height="25" fill="white" transform="translate(1 1)"/>
</clipPath>
</defs>
</svg>
