<svg width="352" height="56" viewBox="0 0 352 56" fill="none" xmlns="http://www.w3.org/2000/svg">
<g clip-path="url(#clip0_1_629)">
<path opacity="0.07" d="M36 17H4C2.3 17 1 18.3 1 20V38C1 39.7 2.4 41 4 41H36C37.7 41 39 39.7 39 38V20C39 18.3 37.6 17 36 17Z" fill="black"/>
<path d="M36 18C37.1 18 38 18.9 38 20V38C38 39.1 37.1 40 36 40H4C2.9 40 2 39.1 2 38V20C2 18.9 2.9 18 4 18H36Z" fill="#006FCF"/>
<path d="M9.971 27.268L10.745 29.144H9.203L9.971 27.268ZM26.046 27.346H23.069V28.173H25.998V29.412H23.075V30.334H26.052V31.073L28.129 28.828L26.052 26.488L26.046 27.346ZM11.983 25.006H15.978L16.865 26.941L17.687 25H28.057L29.135 26.19L30.25 25H35.013L31.494 28.852L34.977 32.68H30.143L29.065 31.49L27.94 32.68H11.03L10.536 31.49H9.406L8.911 32.68H5L8.286 25H11.716L11.983 25.006ZM20.646 26.084H18.407L16.907 29.62L15.282 26.084H13.06V30.894L11 26.084H9.007L6.625 31.596H8.18L8.674 30.406H11.27L11.764 31.596H14.484V27.661L16.235 31.602H17.425L19.165 27.673V31.603H20.623L20.647 26.083L20.646 26.084ZM29.986 28.852L32.517 26.084H30.695L29.094 27.81L27.546 26.084H21.652V31.602H27.462L29.076 29.864L30.624 31.602H32.499L29.987 28.852H29.986Z" fill="white"/>
</g>
<g clip-path="url(#clip1_1_629)">
<path opacity="0.07" d="M112 17H80C78.3 17 77 18.3 77 20V38C77 39.7 78.4 41 80 41H112C113.7 41 115 39.7 115 38V20C115 18.3 113.6 17 112 17Z" fill="black"/>
<path d="M112 18C113.1 18 114 18.9 114 20V38C114 39.1 113.1 40 112 40H80C78.9 40 78 39.1 78 38V20C78 18.9 78.9 18 80 18H112Z" fill="white"/>
<path d="M80.57 24.16H79V29.66H80.57C81.4 29.66 82 29.46 82.53 29.03C83.16 28.51 83.53 27.73 83.53 26.92C83.52 25.29 82.31 24.16 80.57 24.16ZM81.83 28.3C81.49 28.6 81.06 28.74 80.36 28.74H80.07V25.1H80.36C81.05 25.1 81.47 25.22 81.83 25.54C82.2 25.87 82.42 26.38 82.42 26.91C82.42 27.44 82.2 27.97 81.83 28.3ZM84.02 24.16H85.09V29.66H84.02V24.16ZM87.71 26.27C87.07 26.03 86.88 25.87 86.88 25.58C86.88 25.23 87.22 24.97 87.68 24.97C88 24.97 88.27 25.1 88.54 25.42L89.1 24.69C88.64 24.29 88.09 24.08 87.48 24.08C86.51 24.08 85.76 24.76 85.76 25.66C85.76 26.42 86.11 26.81 87.11 27.17C87.53 27.32 87.74 27.42 87.85 27.48C88.06 27.62 88.17 27.82 88.17 28.05C88.17 28.5 87.82 28.83 87.34 28.83C86.83 28.83 86.42 28.57 86.17 28.1L85.48 28.77C85.97 29.5 86.57 29.82 87.38 29.82C88.49 29.82 89.28 29.08 89.28 28.01C89.3 27.12 88.93 26.72 87.71 26.27ZM89.63 26.92C89.63 28.54 90.9 29.79 92.53 29.79C92.99 29.79 93.39 29.7 93.87 29.47V28.21C93.44 28.64 93.06 28.81 92.58 28.81C91.5 28.81 90.73 28.03 90.73 26.91C90.73 25.85 91.52 25.02 92.53 25.02C93.04 25.02 93.43 25.2 93.87 25.64V24.38C93.4 24.14 93.01 24.04 92.55 24.04C90.94 24.04 89.63 25.32 89.63 26.92ZM102.39 27.86L100.92 24.16H99.75L102.08 29.8H102.66L105.03 24.16H103.87L102.39 27.86ZM105.52 29.66H108.56V28.73H106.59V27.25H108.49V26.32H106.59V25.1H108.56V24.16H105.52V29.66ZM112.81 25.79C112.81 24.76 112.1 24.17 110.86 24.17H109.27V29.67H110.34V27.46H110.48L111.96 29.67H113.28L111.55 27.35C112.36 27.18 112.81 26.63 112.81 25.79ZM110.65 26.7H110.34V25.03H110.67C111.34 25.03 111.7 25.31 111.7 25.85C111.7 26.4 111.34 26.7 110.65 26.7Z" fill="#231F20"/>
<path d="M97.16 29.86C97.9374 29.86 98.6829 29.5512 99.2325 29.0016C99.7822 28.4519 100.091 27.7064 100.091 26.929C100.091 26.1517 99.7822 25.4062 99.2325 24.8565C98.6829 24.3068 97.9374 23.998 97.16 23.998C96.3827 23.998 95.6371 24.3068 95.0875 24.8565C94.5378 25.4062 94.229 26.1517 94.229 26.929C94.229 27.7064 94.5378 28.4519 95.0875 29.0016C95.6371 29.5512 96.3827 29.86 97.16 29.86Z" fill="url(#paint0_linear_1_629)"/>
<path opacity="0.65" d="M97.16 29.86C97.9374 29.86 98.6829 29.5512 99.2325 29.0016C99.7822 28.4519 100.091 27.7064 100.091 26.929C100.091 26.1517 99.7822 25.4062 99.2325 24.8565C98.6829 24.3068 97.9374 23.998 97.16 23.998C96.3827 23.998 95.6371 24.3068 95.0875 24.8565C94.5378 25.4062 94.229 26.1517 94.229 26.929C94.229 27.7064 94.5378 28.4519 95.0875 29.0016C95.6371 29.5512 96.3827 29.86 97.16 29.86Z" fill="url(#paint1_linear_1_629)"/>
<path d="M113.57 24.506C113.57 24.406 113.5 24.356 113.39 24.356H113.23V24.836H113.35V24.646L113.49 24.836H113.63L113.47 24.636C113.53 24.626 113.57 24.576 113.57 24.506ZM113.37 24.576H113.35V24.446H113.37C113.43 24.446 113.46 24.466 113.46 24.506C113.46 24.556 113.43 24.576 113.37 24.576Z" fill="#231F20"/>
<path d="M113.41 24.1758C113.18 24.1758 112.99 24.3658 112.99 24.5958C112.99 24.8258 113.18 25.0158 113.41 25.0158C113.64 25.0158 113.83 24.8258 113.83 24.5958C113.83 24.3658 113.64 24.1758 113.41 24.1758ZM113.41 24.9458C113.23 24.9458 113.07 24.7958 113.07 24.5958C113.07 24.4058 113.22 24.2458 113.41 24.2458C113.59 24.2458 113.74 24.4058 113.74 24.5958C113.74 24.7858 113.59 24.9458 113.41 24.9458Z" fill="#231F20"/>
<path d="M114 29.9839C114 29.9839 104.09 36.8729 85.976 39.9999H111.999C112.527 39.9999 113.033 39.7914 113.408 39.4198C113.782 39.0481 113.995 38.5435 113.999 38.0159L114.023 34.9959L114 29.9849V29.9839Z" fill="#F48120"/>
</g>
<g clip-path="url(#clip2_1_629)">
<path opacity="0.07" d="M188 17H156C154.3 17 153 18.3 153 20V38C153 39.7 154.4 41 156 41H188C189.7 41 191 39.7 191 38V20C191 18.3 189.6 17 188 17Z" fill="black"/>
<path d="M188 18C189.1 18 190 18.9 190 20V38C190 39.1 189.1 40 188 40H156C154.9 40 154 39.1 154 38V20C154 18.9 154.9 18 156 18H188Z" fill="white"/>
<path d="M168 36C171.866 36 175 32.866 175 29C175 25.134 171.866 22 168 22C164.134 22 161 25.134 161 29C161 32.866 164.134 36 168 36Z" fill="#EB001B"/>
<path d="M176 36C179.866 36 183 32.866 183 29C183 25.134 179.866 22 176 22C172.134 22 169 25.134 169 29C169 32.866 172.134 36 176 36Z" fill="#F79E1B"/>
<path d="M175 28.9998C175 26.5998 173.8 24.4998 172 23.2998C170.2 24.5998 169 26.6998 169 28.9998C169 31.2998 170.2 33.4998 172 34.6998C173.8 33.4998 175 31.3998 175 28.9998Z" fill="#FF5F00"/>
</g>
<g clip-path="url(#clip3_1_629)">
<path opacity="0.07" d="M150 17H118C116.3 17 115 18.3 115 20V38C115 39.7 116.4 41 118 41H150C151.7 41 153 39.7 153 38V20C153 18.3 151.6 17 150 17Z" fill="black"/>
<path d="M150 18C151.1 18 152 18.9 152 20V38C152 39.1 151.1 40 150 40H118C116.9 40 116 39.1 116 38V20C116 18.9 116.9 18 118 18H150Z" fill="white"/>
<path fill-rule="evenodd" clip-rule="evenodd" d="M126.5 22H130V33.5C130 34.163 129.737 34.7989 129.268 35.2678C128.799 35.7366 128.163 36 127.5 36H124V24.5C124 23.837 124.263 23.2011 124.732 22.7322C125.201 22.2634 125.837 22 126.5 22Z" fill="#006EBC"/>
<path fill-rule="evenodd" clip-rule="evenodd" d="M133.5 22H137V33.5C137 34.163 136.737 34.7989 136.268 35.2678C135.799 35.7366 135.163 36 134.5 36H131V24.5C131 23.837 131.263 23.2011 131.732 22.7322C132.201 22.2634 132.837 22 133.5 22Z" fill="#F00036"/>
<path fill-rule="evenodd" clip-rule="evenodd" d="M140.5 22H144V33.5C144 34.163 143.737 34.7989 143.268 35.2678C142.799 35.7366 142.163 36 141.5 36H138V24.5C138 23.837 138.263 23.2011 138.732 22.7322C139.201 22.2634 139.837 22 140.5 22Z" fill="#2AB419"/>
<path d="M125.755 31.5C124.695 31.5 123.633 31.196 123.099 30.513L123.879 29.837C123.947 30.97 127.424 31.077 127.424 29.647V26.5H129.226V29.647C129.226 30.375 128.652 30.969 127.653 31.279C127.187 31.423 126.288 31.5 125.755 31.5ZM133.871 31.5C133.197 31.5 132.483 31.393 131.906 31.134C130.958 30.709 130.594 29.928 130.606 28.935C130.618 27.921 131.042 27.153 132.074 26.77C133.393 26.28 135.417 26.509 136 27.04V28.012C135.428 27.491 134.042 27.114 133.081 27.552C132.587 27.778 132.344 28.469 132.337 29C132.331 29.56 132.582 30.252 133.081 30.497C134.034 30.964 135.471 30.537 136 30.056V31.066C135.642 31.321 134.747 31.5 133.871 31.5ZM142.55 28.913C142.92 28.678 143.132 28.346 143.132 27.908C143.132 27.47 143.016 27.221 142.784 26.969C142.578 26.762 142.204 26.5 141.546 26.5H138V31.5H141.546C142.242 31.5 142.643 31.27 142.861 31.085C143.144 30.835 143.287 30.555 143.287 30.125C143.287 29.694 143.132 29.217 142.55 28.913ZM140.644 28.632H139.216V27.188H140.711C141.667 27.188 141.655 28.632 140.644 28.632ZM140.932 30.789H139.216V29.276H140.932C141.918 29.276 142.015 30.789 140.932 30.789Z" fill="white"/>
</g>
<g clip-path="url(#clip4_1_629)">
<path opacity="0.07" d="M74 17H42C40.3 17 39 18.3 39 20V38C39 39.7 40.4 41 42 41H74C75.7 41 77 39.7 77 38V20C77 18.3 75.6 17 74 17Z" fill="black"/>
<path d="M74 18C75.1 18 76 18.9 76 20V38C76 39.1 75.1 40 74 40H42C40.9 40 40 39.1 40 38V20C40 18.9 40.9 18 42 18H74Z" fill="white"/>
<path d="M51 29V32.7C51 33 50.8 33 50.5 32.9C48.6 32.1 47.5 29.6 48.2 27.5C48.6 26.4 49.4 25.5 50.5 25.1C50.9 24.9 51 25 51 25.3V29ZM53 29V25.3C53 25 53 25 53.3 25.1C55.4 25.9 56.5 28.4 55.7 30.5C55.3 31.6 54.5 32.5 53.4 32.9C53 33.1 53 33 53 32.7V29ZM60.2 22H52C55.8 22 58.8 25.1 58.8 29C58.8 32.9 55.8 36 52 36H60.2C64 36 67 32.9 67 29C67 25.1 64 22 60.2 22Z" fill="#3086C8"/>
</g>
<g clip-path="url(#clip5_1_629)">
<path opacity="0.07" d="M226 17H194C192.3 17 191 18.3 191 20V38C191 39.7 192.4 41 194 41H226C227.7 41 229 39.7 229 38V20C229 18.3 227.6 17 226 17Z" fill="black"/>
<path d="M226 18C227.1 18 228 18.9 228 20V38C228 39.1 227.1 40 226 40H194C192.9 40 192 39.1 192 38V20C192 18.9 192.9 18 194 18H226Z" fill="white"/>
<path d="M219.3 27.1H219C218.6 28.1 218.3 28.6 218 30.1H219.9C219.6 28.6 219.6 27.9 219.3 27.1ZM222.2 33H220.5C220.4 33 220.4 33 220.3 32.9L220.1 32L220 31.8H217.6C217.5 31.8 217.4 31.8 217.4 32L217.1 32.9C217.1 33 217 33 217 33H214.9L215.1 32.5L218 25.7C218 25.2 218.3 25 218.8 25H220.3C220.4 25 220.5 25 220.5 25.2L221.9 31.7C222 32.1 222.1 32.4 222.1 32.8C222.2 32.9 222.2 32.9 222.2 33ZM208.8 32.7L209.2 30.9C209.3 30.9 209.4 31 209.4 31C210.1 31.3 210.8 31.5 211.5 31.4C211.7 31.4 212 31.3 212.2 31.2C212.7 31 212.7 30.5 212.3 30.1C212.1 29.9 211.8 29.8 211.5 29.6C211.1 29.4 210.7 29.2 210.4 28.9C209.2 27.9 209.6 26.5 210.3 25.8C210.9 25.4 211.2 25 212 25C213.2 25 214.5 25 215.1 25.2H215.2C215.1 25.8 215 26.3 214.8 26.9C214.3 26.7 213.8 26.5 213.3 26.5C213 26.5 212.7 26.5 212.4 26.6C212.2 26.6 212.1 26.7 212 26.8C211.8 27 211.8 27.3 212 27.5L212.5 27.9C212.9 28.1 213.3 28.3 213.6 28.5C214.1 28.8 214.6 29.3 214.7 29.9C214.9 30.8 214.6 31.6 213.8 32.2C213.3 32.6 213.1 32.8 212.4 32.8C211 32.8 209.9 32.9 209 32.6C208.9 32.8 208.9 32.8 208.8 32.7ZM205.3 33C205.4 32.3 205.4 32.3 205.5 32C206 29.8 206.5 27.5 206.9 25.3C207 25.1 207 25 207.2 25H209C208.8 26.2 208.6 27.1 208.3 28.2C208 29.7 207.7 31.2 207.3 32.7C207.3 32.9 207.2 32.9 207 32.9L205.3 33ZM196 25.2C196 25.1 196.2 25 196.3 25H199.7C200.2 25 200.6 25.3 200.7 25.8L201.6 30.2C201.6 30.3 201.6 30.3 201.7 30.4C201.7 30.3 201.8 30.3 201.8 30.3L203.9 25.2C203.8 25.1 203.9 25 204 25H206.1C206.1 25.1 206.1 25.1 206 25.2L202.9 32.5C202.8 32.7 202.8 32.8 202.7 32.9C202.6 33 202.4 32.9 202.2 32.9H200.7C200.6 32.9 200.5 32.9 200.5 32.7L198.9 26.5C198.7 26.3 198.4 26 198 25.9C197.4 25.6 196.3 25.4 196.1 25.4L196 25.2Z" fill="#142688"/>
</g>
<defs>
<linearGradient id="paint0_linear_1_629" x1="98.657" y1="29.275" x2="96.632" y2="26.104" gradientUnits="userSpaceOnUse">
<stop stop-color="#F89F20"/>
<stop offset="0.25" stop-color="#F79A20"/>
<stop offset="0.533" stop-color="#F68D20"/>
<stop offset="0.62" stop-color="#F58720"/>
<stop offset="0.723" stop-color="#F48120"/>
<stop offset="1" stop-color="#F37521"/>
</linearGradient>
<linearGradient id="paint1_linear_1_629" x1="98.338" y1="29.232" x2="95.378" y2="23.446" gradientUnits="userSpaceOnUse">
<stop stop-color="#F58720"/>
<stop offset="0.359" stop-color="#E16F27"/>
<stop offset="0.703" stop-color="#D4602C"/>
<stop offset="0.982" stop-color="#D05B2E"/>
</linearGradient>
<clipPath id="clip0_1_629">
<rect width="38" height="24" fill="white" transform="translate(1 17)"/>
</clipPath>
<clipPath id="clip1_1_629">
<rect width="38" height="24" fill="white" transform="translate(77 17)"/>
</clipPath>
<clipPath id="clip2_1_629">
<rect width="38" height="24" fill="white" transform="translate(153 17)"/>
</clipPath>
<clipPath id="clip3_1_629">
<rect width="38" height="24" fill="white" transform="translate(115 17)"/>
</clipPath>
<clipPath id="clip4_1_629">
<rect width="38" height="24" fill="white" transform="translate(39 17)"/>
</clipPath>
<clipPath id="clip5_1_629">
<rect width="38" height="24" fill="white" transform="translate(191 17)"/>
</clipPath>
</defs>
</svg>
