<svg width="118" height="46" viewBox="0 0 118 46" fill="none" xmlns="http://www.w3.org/2000/svg">
<path d="M109.822 8.58258C109.822 7.68046 110.195 7.2294 110.814 7.2294C111.432 7.2294 112.178 7.85013 113.071 8.87226L117.754 15.0464V7.05559H117.75V7.05146C116.14 6.45142 114.903 6.25279 113.489 6.25279C109.277 6.25279 106.676 9.33159 106.651 13.0063C106.627 16.8589 109.499 19.2632 112.87 19.2632C115.075 19.2632 116.882 18.4894 118 16.7845L117.975 16.7596C117.754 16.8341 117.553 16.8589 117.234 16.8589C113.735 16.8631 109.822 12.609 109.822 8.58258ZM98.5389 18.9818H106.647L105.086 17.1196V6.00864L100.133 9.04606V17.0865L98.5389 18.9818ZM105.361 2.77672C105.361 1.12558 104.369 0 102.611 0C100.854 0 99.8622 1.12558 99.8622 2.77672C99.8622 4.45268 100.854 5.57827 102.611 5.57827C104.369 5.57827 105.361 4.45268 105.361 2.77672ZM98.6413 16.7141L98.6167 16.6893C98.121 16.8879 97.699 16.9665 97.1541 16.9665C95.3227 16.9665 94.6507 15.8906 94.6507 12.9897V7.15905H98.1456V6.75765H94.6507V1.6801L87.7881 7.13422V7.15905H89.6974V14.2643C89.6974 17.5169 90.8609 19.2674 93.8108 19.2674C96.0888 19.2674 97.7235 18.1914 98.6413 16.7141ZM88.4601 18.9818L86.8417 17.0493V11.6821C86.8417 8.0529 85.1824 6.25279 82.0604 6.25279C79.5817 6.25279 77.7503 7.27906 76.0664 9.17848L76.1893 9.30263C77.0333 8.65293 77.7995 8.35085 78.9139 8.35085C80.7985 8.35085 81.8883 9.72886 81.8883 12.4807C77.7749 12.9318 75.3494 14.4588 75.3494 16.7596C75.3494 18.3363 76.4392 19.2632 78.0494 19.2632C79.4137 19.2632 80.7248 18.5887 81.8883 17.5873L81.8924 18.9777H88.4601V18.9818ZM81.8842 17.2397C81.663 17.2893 81.4622 17.3141 81.3147 17.3141C80.3232 17.3141 79.8275 16.6893 79.8275 15.514C79.8275 14.1898 80.397 13.238 81.8842 12.8118V17.2397ZM74.067 16.9541C74.0752 16.7679 74.0711 15.8823 74.067 14.9802V10.0103C74.067 7.457 73.1001 6.13278 70.9942 6.13278C69.5807 6.13278 68.2451 6.90662 66.1637 8.61155C65.8401 6.98525 64.9018 6.13278 63.2179 6.13278C61.829 6.13278 60.518 6.88179 58.5104 8.5081V6.0045L52.1435 8.25567L53.557 9.48057V17.099L51.9797 18.9777H60.0878L58.5104 17.0948V8.80191C58.9681 8.58513 59.4676 8.47348 59.9731 8.47499C61.0383 8.47499 61.3374 9.12469 61.3374 11.0779V18.9736H67.9091L66.2908 17.0452V10.002C66.2908 9.57575 66.2662 9.20331 66.217 8.85157C66.7128 8.60327 67.2331 8.47499 67.7534 8.47499C68.8186 8.47499 69.1177 9.12469 69.1177 11.0779V18.6094H69.1218C69.1915 24.167 71.0925 25.9629 72.4077 26.9809C74.7143 28.4003 77.2627 28.6196 79.4342 27.3741C80.3437 26.8733 81.0402 26.0167 81.032 26.0085C81.3885 25.516 81.6179 24.8994 81.6097 24.1256C81.5933 22.5738 80.4503 21.4854 78.8401 21.4896C77.2095 21.4896 76.0705 22.611 76.0828 24.2001C76.091 25.6567 76.8203 26.6002 78.0248 26.9106C77.062 27.3078 76.0213 27.3078 75.4641 26.894C74.1244 25.7767 74.0588 21.8992 74.0711 18.6135H74.0752V16.9541H74.067ZM51.3815 14.8023C51.3815 13.8795 51.1438 13.1263 50.6645 12.4725C50.2343 11.9345 49.6443 11.4545 48.8864 11.0407L47.0263 10.0392C45.5636 9.26538 45.1703 8.63638 45.1703 7.76322C45.1703 7.06387 45.5472 6.38107 46.6207 6.57143C47.1779 6.67074 47.6204 6.95214 48.5135 7.82116L50.9103 10.2999V5.95898H46.7149L46.7231 5.96725C43.5806 6.05002 41.6509 7.67632 41.6509 10.1385C41.6509 11.0614 41.8885 11.8145 42.3679 12.4683C42.7981 13.0063 43.3881 13.4863 44.1501 13.9001L46.0061 14.9016C47.4688 15.6754 47.8662 16.3044 47.8662 17.1776C47.8662 17.8769 47.4893 18.5597 46.4158 18.3694C45.8586 18.2701 45.4161 17.9887 44.523 17.1196L42.1262 14.6409V18.9818H46.3216L46.3134 18.9736C49.4518 18.8908 51.3815 17.2645 51.3815 14.8023ZM42.4949 30.4611V43.873L40.9216 45.7476H49.0298L47.4483 43.8606V26.9809L41.0814 29.2321L42.4949 30.4611ZM32.9446 18.9818H41.0527L39.4877 17.1196V6.00864L34.5343 9.04606V17.0865L32.9446 18.9818ZM39.7622 2.77672C39.7622 1.12558 38.7707 0 37.013 0C35.2554 0 34.2639 1.12558 34.2639 2.77672C34.2639 4.45268 35.2554 5.57827 37.013 5.57827C38.7707 5.57827 39.7622 4.45268 39.7622 2.77672ZM28.9827 10.8503L32.5882 13.1263V6.48867L28.9827 8.76466V6.15761L22.6159 8.30946L24.0294 9.53436V17.099L22.4479 18.9818H30.556L28.9827 17.1031V10.8503ZM22.2103 6.38107C22.2103 3.27744 19.412 1.00144 13.3155 1.00144H2.61394L2.64262 1.00972C0.95462 1.05524 0 2.16013 0 3.77816C0 5.45412 0.991493 6.5797 2.74914 6.5797C4.50679 6.5797 5.49828 5.45412 5.49828 3.77816C5.49828 2.84293 5.17052 2.08978 4.57644 1.59734L4.6256 1.60975C7.47307 1.54354 7.47307 3.12433 7.47307 3.12433V17.3928L6.14562 18.9777H14.2537L12.9222 17.3928V12.2821C18.8671 12.2366 22.2103 10.0847 22.2103 6.38107ZM16.5153 6.4059C16.5153 9.80748 15.0773 11.86 12.9222 11.8849V1.40284H13.1967C15.1756 1.40284 16.5153 3.12846 16.5153 6.4059ZM18.5434 30.548C18.5434 32.224 19.5349 33.3496 21.2925 33.3496C23.0502 33.3496 24.0417 32.224 24.0417 30.548C24.0417 29.6128 23.7139 28.8597 23.1198 28.3672L23.169 28.3796C26.0165 28.3134 26.0165 29.8942 26.0165 29.8942V44.1626L24.689 45.7476H32.7971L31.4656 44.1626V39.052C37.4104 39.0023 40.7537 36.8505 40.7537 33.1468C40.7537 30.0432 37.9553 27.7672 31.8589 27.7672H21.1573L21.186 27.7755C19.498 27.8251 18.5434 28.93 18.5434 30.548ZM31.4656 28.1686H31.7401C33.7231 28.1686 35.0587 29.8942 35.0587 33.1716C35.0587 36.5732 33.6206 38.6258 31.4656 38.6506V28.1686ZM49.714 43.4964C49.714 45.073 50.8038 46 52.4139 46C53.7742 46 55.0893 45.3255 56.2529 44.324L56.257 45.7145H62.8287L61.2104 43.7819V38.4189C61.2104 34.7897 59.5511 32.9896 56.4291 32.9896C53.9503 32.9896 52.119 34.0158 50.4351 35.9153L50.558 36.0394C51.402 35.3897 52.1681 35.0876 53.2825 35.0876C55.1631 35.0876 56.257 36.4656 56.257 39.2175C52.1435 39.6686 49.714 41.1956 49.714 43.4964ZM54.1962 42.2467C54.1962 40.9225 54.7657 39.9707 56.2529 39.5444V43.9723C56.0317 44.0219 55.8309 44.0468 55.6834 44.0468C54.6919 44.0468 54.1962 43.4219 54.1962 42.2467ZM65.037 43.873L63.4597 45.7517H71.5678L69.9863 43.8688V39.4244H69.9904V38.6506H69.9863V35.5925C70.4821 35.3649 70.9778 35.2159 71.4736 35.2159C72.4896 35.2159 72.9608 35.8656 72.9608 37.8188V45.7517H79.5325L77.9142 43.8233V36.7429C77.9142 34.1896 76.8243 32.8654 74.7184 32.8654C73.0345 32.8654 71.5965 33.842 69.9863 35.2407V32.7371L63.6195 34.9883L65.033 36.2132V43.873H65.037ZM78.6394 33.8917H80.5486V40.9969C80.5486 44.2495 81.7122 46 84.6621 46C86.94 46 88.5748 44.9241 89.4925 43.4467L89.4679 43.4219C88.9722 43.6205 88.5502 43.6992 88.0053 43.6992C86.1739 43.6992 85.502 42.6232 85.502 39.7224V33.8917H88.9927V33.4903H85.502V28.4127L78.6394 33.8669V33.8917ZM89.722 36.9084C89.722 37.8354 89.9596 38.5844 90.4389 39.2424C90.8691 39.7803 91.4591 40.2603 92.2171 40.6742L94.0771 41.6756C95.5398 42.4494 95.9331 43.0784 95.9331 43.9516C95.9331 44.651 95.5562 45.3338 94.4828 45.1434C93.9256 45.0441 93.4831 44.7627 92.5899 43.8937L90.1931 41.4149V45.7558H94.3885L94.3803 45.7476C97.5228 45.6648 99.4525 44.0385 99.4525 41.5763C99.4525 40.6535 99.2149 39.9003 98.7355 39.2424C98.3053 38.7044 97.7154 38.2244 96.9533 37.8105L95.0932 36.8091C93.6306 36.0311 93.2373 35.4063 93.2373 34.5331C93.2373 33.8338 93.6142 33.151 94.6876 33.3413C95.2448 33.4406 95.6873 33.722 96.5805 34.591L98.9773 37.0698V32.7289H94.7818L94.79 32.7371C91.6517 32.8199 89.722 34.4462 89.722 36.9084Z" fill="white"/>
</svg>
