<svg width="16" height="65" viewBox="0 0 16 65" fill="none" xmlns="http://www.w3.org/2000/svg">
<path d="M9.40284 65H6.25231L7.80681 64.5169C11.7156 63.3044 13.8172 61.7725 13.7269 60.2046C13.6348 58.6253 11.3239 57.1037 7.22004 55.9183C2.56376 54.5741 0 52.8394 0 51.033C0 49.2266 2.56376 47.4914 7.22004 46.1478C11.4268 44.9335 13.7432 43.3729 13.7414 41.7546C13.7414 40.1364 11.425 38.5763 7.22004 37.3621C2.56376 36.0179 0 34.2821 0 32.4757C0 30.6699 2.56556 28.9352 7.22004 27.5916C11.4268 26.3773 13.7432 24.8167 13.7414 23.1985C13.7414 21.5802 11.425 20.0202 7.22004 18.8065C2.56376 17.4623 0 15.7271 0 13.9207C0 12.1143 2.56376 10.379 7.22004 9.03541C11.3022 7.85732 13.6114 6.3436 13.7251 4.77394C13.8371 3.21785 11.7861 1.6934 7.94945 0.481406L6.42564 0H9.5527L9.8181 0.0864497C13.8046 1.38037 16 2.99805 16 4.64286C16 6.44813 13.4362 8.18334 8.77996 9.52811C4.57323 10.7424 2.25683 12.3024 2.25683 13.9207C2.25683 15.5389 4.57323 17.099 8.77996 18.3132C13.4362 19.6574 16 21.3926 16 23.1985C16 25.0049 13.4344 26.7401 8.77996 28.0837C4.57323 29.2974 2.25683 30.8575 2.25683 32.4757C2.25683 34.0945 4.57323 35.6546 8.77996 36.8694C13.4362 38.213 16.0018 39.9482 16 41.7546C16 43.561 13.4362 45.2963 8.77996 46.6393C4.57323 47.8536 2.25683 49.4142 2.25683 51.0324C2.25683 52.6507 4.57323 54.2107 8.77996 55.425C13.2846 56.7251 15.8411 58.4033 15.9801 60.1492C16.1174 61.8799 13.875 63.5722 9.66644 64.9147L9.40284 65Z" fill="white"/>
</svg>
